<svg xmlns="http://www.w3.org/2000/svg" width="1024" height="1024" viewBox="0 0 1024 1024"><defs><linearGradient id="s" x1="0" y1="0" x2="0" y2="1"><stop offset="0%" stop-color="#444f60"></stop><stop offset="100%" stop-color="#333a47"></stop></linearGradient><radialGradient id="v" cx="50%" cy="50%" r="62%"><stop offset="0%" stop-color="#9a7be0"></stop><stop offset="55%" stop-color="#55447b"></stop><stop offset="100%" stop-color="#2b223f"></stop></radialGradient></defs><path d="M512.0,512.0L521.9,517.7L531.7,523.4L541.6,529.1L551.5,534.8L561.4,540.5L571.2,546.2L581.1,551.9L590.9,557.7L600.8,563.5L610.6,569.2L620.8,574.4L632.1,577.6L645.4,577.4L659.3,576.1L669.5,581.2L672.7,598.5L670.4,625.3L667.5,653.0L667.3,676.2L670.4,693.7L676.6,705.6L686.2,711.9L699.0,712.5L715.1,707.5L734.4,696.8L756.6,681.1L779.1,664.9L797.1,656.6L807.9,660.7L814.1,672.8L820.2,685.0L828.3,693.8L837.7,700.3L847.6,706.0L857.5,711.6L867.4,717.2L877.3,722.9L887.2,728.6L897.0,734.3L906.9,740.0L892.1,763.9L875.9,786.8L858.3,808.7L839.4,829.4L819.2,849.0L797.9,867.3L775.5,884.2L752.1,899.7L727.7,913.7L702.6,926.3L676.7,937.2L650.2,946.5L623.2,954.2L595.8,960.2L568.0,964.5L540.1,967.1L512.0,968.0L483.9,967.1L456.0,964.5L428.2,960.2L400.8,954.2L373.8,946.5L347.3,937.2L321.4,926.3L296.3,913.7L271.9,899.7L248.5,884.2L226.1,867.3L204.8,849.0L184.6,829.4L165.7,808.7L148.1,786.8L131.9,763.9L117.1,740.0L127.0,734.3L136.8,728.6L146.7,722.9L156.6,717.2L166.4,711.4L176.2,705.6L186.1,699.9L196.4,695.0L208.1,692.4L221.7,693.2L235.3,693.9L244.2,686.6L246.0,666.9L243.2,639.3L240.7,612.2L241.2,590.1L244.9,573.7L251.8,562.9L262.0,557.8L275.5,558.3L292.2,564.4L312.1,576.2L334.7,592.5L356.7,607.9L373.3,613.8L382.8,607.5L388.7,594.8L395.2,583.2L403.6,575.0L413.1,568.8L423.0,563.1L433.0,557.5L442.9,551.9L452.8,546.2L462.6,540.5L472.5,534.8L482.4,529.1L492.3,523.4L502.1,517.7L512.0,512.0Z" fill="url(#s)" stroke="#11151c" stroke-opacity="0.95" stroke-width="6" stroke-linejoin="round"></path></svg>